<svg width="118" height="118" viewBox="0 0 118 118" fill="none" xmlns="http://www.w3.org/2000/svg">
<path fill-rule="evenodd" clip-rule="evenodd" d="M112 84.9532C115.842 77.1211 118 68.3125 118 59C118 26.4152 91.5848 0 59 0C58.8948 0 58.7896 0.000275509 58.6845 0.000825844C58.623 0.000275509 58.5615 0 58.5 0C58.2647 0 58.03 0.00402674 57.7959 0.0120421C25.7669 0.65322 0 26.8175 0 59C0 68.3125 2.15753 77.1211 6 84.9532V85H6.023C15.4683 104.209 35.0535 117.533 57.7959 117.988C58.03 117.996 58.2647 118 58.5 118C58.5615 118 58.623 118 58.6845 117.999C58.7896 118 58.8948 118 59 118C82.2537 118 102.365 104.547 111.977 85H112V84.9532ZM60 112.926C66.5429 112.278 73.1987 107.396 78.5789 98.1954C80.8154 94.3708 82.7428 89.9257 84.2612 85H60L60 112.926ZM60 80V63H87.918C87.6705 69.0132 86.8703 74.7278 85.6204 80H60ZM89.4781 85C86.3914 95.7355 81.4527 104.633 75.3749 110.473C88.6649 106.248 99.7247 97.0195 106.34 85H89.4781ZM108.765 80H90.7506C91.9399 74.6615 92.689 68.9516 92.922 63H112.854C112.415 68.9911 110.999 74.7107 108.765 80ZM11.6599 85C18.0218 96.559 28.4941 105.537 41.1076 109.965C35.2669 104.123 30.5205 95.4291 27.5219 85H11.6599ZM31.3796 80C30.1297 74.7278 29.3295 69.0132 29.082 63H55V80H31.3796ZM32.7388 85H55L55 112.596C49.1154 111.239 43.2537 106.46 38.4211 98.1954C36.1847 94.3708 34.2572 89.9257 32.7388 85ZM26.2494 80H9.23546C7.00069 74.7107 5.58457 68.9911 5.1459 63H24.078C24.311 68.9516 25.0601 74.6615 26.2494 80ZM60 58H87.9949C87.9339 52.0254 87.3279 46.3139 86.2731 41H60V58ZM92.9951 58H112.991C112.883 52.0484 111.812 46.332 109.927 41H91.365C92.3703 46.3726 92.9376 52.0802 92.9951 58ZM55 41V58H29.0051C29.0661 52.0254 29.6721 46.3139 30.7269 41H55ZM25.635 41C24.6297 46.3726 24.0624 52.0802 24.0049 58H5.00907C5.11716 52.0484 6.1881 46.332 8.0727 41H25.635ZM60 36H85.1191C83.4985 29.87 81.2609 24.3911 78.5789 19.8046C73.1987 10.6036 66.5429 5.72206 60 5.07436V36ZM55 5.40383V36H31.8809C33.5015 29.87 35.7391 24.3911 38.4211 19.8046C43.2537 11.5401 49.1154 6.76057 55 5.40383ZM90.2803 36H107.871C101.517 22.5216 89.7505 12.0966 75.3749 7.52738C82.0103 13.9031 87.2879 23.9227 90.2803 36ZM41.1076 8.0348C34.7154 14.4283 29.6339 24.2384 26.7197 36H10.129C16.2583 22.999 27.4228 12.8389 41.1076 8.0348Z" fill="#050505"/>
</svg>
