<svg width="17" height="17" viewBox="0 0 17 17" fill="none" xmlns="http://www.w3.org/2000/svg">
<path fill-rule="evenodd" clip-rule="evenodd" d="M10.9101 12.4613C9.78984 13.2124 8.4343 13.6516 6.97394 13.6516C3.12236 13.6516 0 10.5956 0 6.8258C0 3.05604 3.12236 0 6.97394 0C10.8255 0 13.9479 3.05604 13.9479 6.8258C13.9479 8.46226 13.3594 9.9645 12.3782 11.1403L17 15.6213L15.5907 17L10.9101 12.4613ZM11.9553 6.8258C11.9553 9.51855 9.72507 11.7014 6.97394 11.7014C4.22281 11.7014 1.99255 9.51855 1.99255 6.8258C1.99255 4.13305 4.22281 1.95023 6.97394 1.95023C9.72507 1.95023 11.9553 4.13305 11.9553 6.8258Z" fill="black"/>
</svg>
