<svg width="246" height="118" viewBox="0 0 246 118" fill="none" xmlns="http://www.w3.org/2000/svg">
<path d="M140.631 14.6822C140.406 12.3758 137.976 10.9856 135.904 10.4833C127.887 8.53393 119.52 12.6064 115.98 20.1828C115.05 22.1764 114.429 24.3596 113.47 26.3343C112.669 27.9772 111.633 29.4748 111.089 31.263C110.387 33.5757 110.567 36.1823 110.754 38.7099C111.153 44.0936 111.568 49.55 113.226 54.7757C113.718 56.3301 114.333 55.3855 114.049 56.9146C113.766 58.447 112.073 59.5844 110.86 58.5765C110.191 58.0205 109.937 57.0758 109.621 56.2354C109.161 55.0032 107.034 52.7726 104.25 47.6764C103.172 45.6986 102.525 43.5122 101.891 41.3543C100.533 36.7352 99.1624 32.0466 98.9114 27.32C98.8342 25.8572 98.8567 24.3659 98.3772 22.9537C97.6531 20.8273 95.8702 19.1497 95.3392 16.976C95.1236 16.0945 95.1301 15.1814 94.8662 14.3125C94.6023 13.4437 93.9361 12.5654 93.1316 12.5401C92.5781 12.5243 92.1243 12.9066 91.722 13.2826C90.2707 14.6348 88.8804 16.1324 88.0437 18.0407C87.2102 19.949 86.9978 22.3439 87.8989 24.4196C88.7935 26.4701 90.6601 28.0088 91.2683 30.1572C91.6384 31.4652 91.4807 32.8206 91.2812 34.1097C90.3511 40.1379 88.5715 46.0208 88.9577 52.2734C89.1926 56.0995 90.2417 59.992 89.8523 63.7328C89.6592 65.5905 89.1121 67.3472 88.8997 69.2018C88.211 75.2237 91.0784 81.451 91.5225 87.6309C91.7349 90.5723 91.397 93.5138 92.0149 96.43C92.6328 99.3461 94.6087 102.392 97.2669 102.806C98.3708 102.976 99.4649 102.667 100.375 102.085C102.834 100.518 103.912 96.847 102.847 93.6623C102.219 91.7761 100.961 90.1521 100.301 88.2786C99.7546 86.7273 99.6387 85.0875 99.4488 83.473C98.5992 76.3358 96.1502 69.3819 94.5637 62.3173C92.9771 55.2496 92.3045 47.648 94.9241 41.4586C95.1751 40.8678 95.5581 40.2232 96.1727 40.2359C96.5718 40.2454 96.9419 40.536 97.2637 40.833C100.861 44.1536 102.191 49.452 103.298 54.3365C105.447 63.8496 107.597 73.3628 109.747 82.8759C110.619 86.7304 111.494 90.6671 111.234 94.4995C111.156 95.6275 110.979 96.7585 111.176 97.8991C111.391 99.166 112.048 100.345 112.83 101.362C114.944 104.114 123.176 105.387 126.282 105.567C129.384 105.747 136.136 103.83 138.002 101.308C139.933 98.7048 140.599 95.1693 141.04 91.7192C141.252 90.0415 141.426 88.3354 141.265 86.6072C140.889 82.5726 129.925 79.827 128.888 75.8619C127.64 71.0785 128.029 66.1687 128.425 61.3948C128.731 57.714 129.165 56.3175 131.534 53.9226C132.486 52.959 133.703 52.3208 134.578 51.2687C136.818 48.5705 136.219 44.0967 137.368 40.5961C138.375 37.5219 140.696 35.3198 142.092 32.4731C143.425 29.7623 143.827 26.4638 143.335 23.2475C143.103 21.7404 142.704 19.9016 141.925 18.5462C141.008 16.9475 140.831 16.6189 140.644 14.6885L140.631 14.6822Z" stroke="black"/>
<path d="M52.9492 50.7948C52.7465 50.1566 52.1576 49.2972 51.4077 49.433C51.0859 49.4899 50.9121 49.73 50.7641 49.9512C49.4125 51.9827 48.0576 54.0206 47.0214 56.1943C46.2523 57.8056 45.6601 59.5212 45.718 61.3505C45.2385 62.6522 43.4074 68.87 43.166 70.2412C42.9665 71.3691 42.9408 72.5381 42.7348 73.6661C42.4806 75.0657 41.882 76.181 41.3574 77.4985C40.9809 78.4432 40.7396 78.9203 40.363 79.8649C39.7773 80.4905 39.4909 81.1666 39.4813 81.6627C39.3783 82.0292 39.1916 82.1239 39.3783 82.0292C39.285 82.6294 39.3043 82.5947 38.7604 82.9675C38.2165 83.3403 37.0902 83.2392 36.7201 82.6389C36.5592 82.3799 36.5785 82.0987 36.5978 81.8333C36.9421 76.418 36.5849 58.289 31.6644 53.6541C30.9371 52.9685 30.1518 52.3018 29.2347 51.7805C26.3544 50.1408 22.6085 50.2482 20.0179 51.4361C17.424 52.6241 15.7828 54.703 14.4537 56.8388C13.1696 58.9019 11.3321 64.9681 11.435 67.4419C11.493 68.8416 10.3505 78.6485 10.4342 80.0513C10.5307 81.5995 10.196 83.0813 10.0673 84.5946C9.71654 88.6703 10.8622 93.0304 13.3402 97.0492C13.9806 98.0887 14.7176 99.125 15.0426 100.209C15.7924 102.714 14.2992 105.28 16.0016 107.611C16.0917 107.735 16.1979 107.861 16.3524 107.934C16.7997 108.145 17.1859 107.773 17.3629 107.45C18.4957 105.378 19.6252 103.302 20.758 101.229C21.2794 100.272 21.8039 99.3114 22.1 98.2719C22.277 97.6495 22.3703 97.0018 22.5731 96.3889C22.8949 95.4 23.487 94.5122 23.9987 93.5959C24.7453 92.2658 25.3375 90.8598 25.7623 89.4065C26.039 88.4618 26.274 87.4476 27.1139 86.7999C27.3166 86.642 27.5676 86.5061 27.8734 86.4903C28.7712 86.4461 29.4631 87.4129 29.4052 88.1206C29.3473 88.8283 28.8903 89.4444 28.9515 90.1679C29.0898 91.795 31.5389 92.8945 32.8905 94.3131C35.5519 97.1029 33.8109 101.062 36.7136 103.713C37.4731 104.405 38.4675 104.913 39.4813 105.324C41.8273 106.278 44.463 106.787 46.7479 106.382C49.0327 105.975 50.8703 104.534 50.9636 102.629C51.0119 101.659 50.6257 100.645 50.2428 99.6589C48.8075 95.9466 47.3754 92.2342 45.9401 88.5218C45.673 87.8268 45.4027 87.119 45.4155 86.4366C45.4381 85.3813 46.1332 84.5093 46.4486 83.5236C47.0343 81.7006 46.3037 79.6122 46.2169 77.6407C46.1107 75.1542 47.0343 72.8794 48.0448 70.6709C48.2314 70.4971 48.4213 70.3265 48.5886 70.1401C49.6925 68.9079 51.2919 62.3457 51.5268 60.7565C51.7102 59.5085 51.8937 58.2511 51.7971 56.9557C51.7585 56.447 51.6781 55.9257 51.8164 55.4518C52.0546 54.6177 52.9299 54.049 53.2131 53.2307C53.4738 52.4819 53.2131 51.6162 52.9525 50.7948H52.9492Z" stroke="black"/>
<path d="M86.1896 95.3718C85.4527 93.5014 85.2692 91.4856 85.0568 89.4983C84.3295 82.7371 83.1903 76.0012 81.2111 69.4706C80.5064 67.1515 79.6922 64.8325 79.5248 62.425C79.3639 60.1344 79.7919 57.8406 79.7887 55.5468C79.7855 53.4332 79.4122 51.329 79.409 49.2153C79.4057 46.8962 79.8434 44.5962 80.2779 42.3087C81.298 36.9661 82.331 31.5792 84.5033 26.5494C85.1115 25.1402 85.8195 23.5984 85.3046 22.1609C84.9249 21.0993 83.8532 20.2905 82.669 20.1767C81.4847 20.063 80.5739 19.529 79.9657 20.4958C79.5087 20.954 78.5626 22.2525 78.4886 22.4515C78.3792 22.7485 78.2247 22.9823 78.0477 23.2509C74.2599 29.0358 77.9029 33.418 74.704 39.5126C73.8448 41.1524 72.7763 43.2724 71.8173 44.8616C70.8422 46.476 70.3145 48.2927 69.5164 49.9894C68.2548 52.6717 66.3368 55.0255 64.7664 57.5626C59.9616 65.3348 60.1322 75.5051 59.421 84.4622C59.2633 86.4368 59.1249 88.4526 58.3365 90.2914C57.7733 91.6026 56.9012 92.7715 56.2028 94.0227C55.2181 95.7888 54.5809 97.7287 54.3363 99.7097C54.1883 100.913 54.214 102.231 54.9799 103.198C55.5753 103.953 56.5343 104.376 57.4837 104.664C60.4733 105.561 63.8234 105.349 66.6683 104.079C68.0424 103.466 69.3072 102.616 70.765 102.202C73.0274 101.561 75.6244 102.111 77.3654 103.605C79.1322 105.119 80.5868 105.747 82.9682 105.52C85.3497 105.292 87.7182 103.7 88.0819 101.469C88.4295 99.3401 86.9813 97.378 86.1864 95.3623L86.1896 95.3718ZM74.4466 82.5791C74.0894 84.1336 70.7489 83.5617 69.2943 83.4448C68.8695 82.4401 69.5518 81.3564 69.8639 80.3138C70.2437 79.0469 70.1021 77.5935 70.8744 76.513C71.2381 76.0043 71.7723 75.6347 72.3355 75.3535C72.9308 75.0565 73.7901 74.9111 74.1537 75.4609C74.3436 75.7484 74.3114 76.1212 74.276 76.4656C74.1602 77.584 74.1022 78.7088 74.1119 79.8336C74.1183 80.5603 74.5978 81.9315 74.4466 82.5823V82.5791Z" stroke="black"/>
<path d="M186.574 102.986C185.985 100.828 180.582 89.4256 179.372 87.5204C178.535 86.2029 177.55 84.9423 177.074 83.47C176.392 81.3532 176.849 79.0815 177.164 76.8889C177.65 73.5272 177.795 70.1213 177.592 66.7344C177.479 64.8419 177.219 62.8451 176.005 61.3443C174.702 59.733 172.568 59.0063 170.766 57.9163C168.964 56.8263 167.313 54.8706 167.941 52.9244C168.452 51.332 170.226 50.5106 171.745 49.6986C175.249 47.8219 178.242 45.0763 180.343 41.8031C181.798 39.5409 182.802 36.5679 181.347 34.3026C180.916 33.6328 180.298 33.083 179.928 32.3816C178.972 30.587 179.79 28.1574 178.483 26.5777C178.081 26.088 177.518 25.7499 176.964 25.4213C174.464 23.9459 171.812 22.521 168.89 22.2366C165.485 21.9049 162.145 23.1623 159.042 24.543C156.117 25.8447 153.218 27.3012 150.826 29.377C148.435 31.4527 146.575 34.2204 146.196 37.2851C145.951 39.2661 146.328 41.2597 146.704 43.2217C147.09 45.2438 147.48 47.2626 147.866 49.2847C148.139 50.7065 148.413 52.1503 148.258 53.5879C148.13 54.7885 147.711 55.9417 147.431 57.1201C146.772 59.8973 144.622 62.0047 144.751 64.8482C144.912 68.412 145.172 72.2476 147.515 75.0248C148.114 75.7357 148.838 76.3581 149.301 77.1543C149.761 77.9504 149.903 79.0183 149.314 79.7355C149.028 80.0831 148.609 80.3074 148.275 80.6107C147.161 81.6281 145.211 84.0008 145.159 85.4699C145.034 89.0307 144.043 92.5219 143.869 96.0794C143.695 99.637 144.512 103.514 147.306 105.871C147.821 106.307 150.064 107.845 151.042 105.302C151.11 105.125 151.119 104.935 151.11 104.746C150.72 97.1378 150.302 91.8457 153.378 84.8223C153.938 83.5427 154.344 79.6439 154.55 78.2695C154.669 77.4797 154.624 76.6772 154.589 75.881C154.482 73.4293 155.425 62.8798 159.876 63.8308C160.709 64.0078 161.405 64.5638 161.945 65.1957C163.574 67.0977 164.002 69.8686 163.017 72.137C162.521 73.2808 161.678 74.4119 161.903 75.6314C162.032 76.336 162.502 76.9268 162.898 77.5334C164.288 79.6723 164.822 82.2031 165.36 84.6674C165.926 87.2645 168.938 95.9751 172.25 97.6686C174.696 98.9198 175.404 102.196 177.962 103.223C180.52 104.25 183.748 107.883 185.724 106.019C186.246 105.529 186.68 104.91 186.744 104.215C186.783 103.798 186.683 103.381 186.571 102.973L186.574 102.986ZM165.987 39.5725C165.163 39.9453 164.282 40.1918 163.377 40.3055C162.776 40.3814 162.142 40.394 161.578 40.176C161.015 39.958 160.536 39.462 160.507 38.8806C160.487 38.4825 160.671 38.1002 160.874 37.7527C161.633 36.432 162.959 35.1619 164.526 35.3041C165.225 35.3673 165.714 35.0292 166.145 35.6232L166.505 35.8475C167.12 35.8001 167.567 36.3246 167.786 36.8775C168.224 37.977 167.094 39.0702 165.984 39.5725H165.987Z" stroke="black"/>
<path d="M235.165 77.407C233.916 76.1938 234.238 74.4497 234.566 72.9711C234.894 71.4925 234.988 69.6505 233.523 68.63C233.041 68.292 232.384 68.036 232.217 67.5368C232.117 67.2462 232.223 66.9523 232.291 66.668C232.638 65.2399 232.021 63.6476 230.946 62.3775C229.871 61.1074 228.381 60.1248 226.833 59.297C226.434 59.0821 226.019 58.8705 225.723 58.5577C225.436 58.2544 225.288 57.8847 225.085 57.5372C224.204 56.0112 222.324 54.9875 220.429 54.5578C218.495 54.1155 216.577 54.4251 214.681 54.046C212.94 53.6953 211.373 53.7458 210.053 54.76C209.709 55.0254 209.4 55.3445 208.959 55.4898C207.872 55.8405 206.546 54.9843 205.384 55.1676C204.747 55.2687 204.27 55.6668 203.736 55.9543C202.478 56.6304 200.869 56.6999 199.369 56.9369C193.496 57.8689 188.769 61.8403 187.584 66.8354C187.082 68.9523 187.143 71.2776 185.911 73.1038C185.38 73.8873 184.617 74.5698 184.373 75.4734C183.928 77.1195 185.341 79.0246 184.749 80.6202C184.604 81.0088 184.344 81.3658 184.327 81.7828C184.289 82.6864 185.351 83.4194 185.785 84.2883C186.522 85.7669 185.332 87.2487 185.338 88.7937C185.344 90.2596 186.435 91.6593 187.668 92.7935C188.897 93.9278 190.326 94.9293 191.327 96.2121C193.21 98.6259 193.66 102.051 196.634 103.419C198.297 104.183 200.216 104 202.018 104.338C204.261 104.758 206.291 105.987 208.525 106.48C210.707 106.961 212.937 106.708 215 106.218C220.545 104.901 225.317 101.845 228.268 97.7254C228.754 97.0493 229.201 96.3195 229.266 95.4949C229.272 95.4222 229.253 95.3464 229.253 95.2737C229.552 95.1916 229.852 95.1031 230.135 94.983C230.881 94.6639 231.49 94.1268 232.085 93.596C233.482 92.3544 234.984 90.8789 234.914 89.0749C234.891 88.5093 234.708 87.9501 234.73 87.3845C234.791 85.9817 236.098 84.8159 236.092 83.4099C236.088 82.7433 235.779 82.1114 235.625 81.4606C235.593 81.3247 235.577 81.1825 235.561 81.0404C235.615 80.9866 235.651 80.9235 235.718 80.8761C236.188 80.5506 236.899 80.4306 237.144 79.9503C237.61 79.0278 236.021 78.2316 235.168 77.407H235.165ZM213.494 80.2157C213.188 80.301 212.818 80.3074 212.628 80.5475C212.528 80.6739 212.502 80.835 212.467 80.9866C212.155 82.301 210.62 83.2393 209.213 82.9803C208.718 82.8886 208.222 82.6422 207.991 82.222C207.704 81.7038 207.826 80.9677 207.324 80.6202C207.241 80.5633 207.144 80.519 207.086 80.4369C207.035 80.3642 207.025 80.2758 207.019 80.1873C206.996 79.9409 206.974 79.6944 206.951 79.4512C206.906 78.9583 206.861 78.4464 207.061 77.9883C207.257 77.5302 207.775 77.1542 208.287 77.268C208.232 76.9741 208.245 76.753 208.486 76.5634L208.57 76.4907C208.74 76.1716 209.172 76.0389 209.548 76.0832C209.925 76.1274 210.263 76.3138 210.591 76.4939C210.964 76.7024 211.054 76.9362 211.486 76.8825C212.213 76.794 212.744 76.6614 213.265 76.8888C213.96 77.1921 214.523 77.8082 214.61 78.5223C214.697 79.2363 214.234 80.0104 213.497 80.2126L213.494 80.2157Z" stroke="black"/>
</svg>
